<?xml version="1.0" encoding="utf-8"?>
<!-- Generator: Adobe Illustrator 19.2.0, SVG Export Plug-In . SVG Version: 6.00 Build 0)  -->
<svg version="1.1" id="Layer_1" xmlns="http://www.w3.org/2000/svg" xmlns:xlink="http://www.w3.org/1999/xlink" x="0px" y="0px"
	 viewBox="0 0 100 100" style="enable-background:new 0 0 100 100;" xml:space="preserve">
<style type="text/css">
	.st0{fill:#FFFFFF;}
	.st1{fill:url(#SVGID_1_);}
	.st2{fill:url(#SVGID_2_);}
	.st3{fill:none;stroke:url(#SVGID_3_);stroke-width:2;stroke-linecap:round;stroke-miterlimit:10;}
	.st4{fill:url(#SVGID_4_);}
	.st5{fill:url(#SVGID_5_);}
	.st6{opacity:0.8;fill:none;stroke:#0069FF;stroke-width:1.5;stroke-miterlimit:10;enable-background:new    ;}
	.st7{opacity:0.3;fill:none;stroke:#0069FF;stroke-width:1.5;stroke-miterlimit:10;enable-background:new    ;}
	.st8{fill:none;stroke:url(#SVGID_6_);stroke-width:1.5;stroke-miterlimit:10;}
	.st9{fill:none;stroke:url(#SVGID_7_);stroke-width:1.5;stroke-miterlimit:10;}
	.st10{fill:none;stroke:url(#SVGID_8_);stroke-width:1.5;stroke-miterlimit:10;}
	.st11{fill:none;stroke:url(#SVGID_9_);stroke-width:1.5;stroke-miterlimit:10;}
	.st12{fill:none;stroke:url(#SVGID_10_);stroke-width:1.5;stroke-miterlimit:10;}
	.st13{fill:none;stroke:url(#SVGID_11_);stroke-width:1.5;stroke-miterlimit:10;}
	.st14{fill:url(#SVGID_12_);}
	.st15{fill:url(#SVGID_13_);}
	.st16{fill:url(#SVGID_14_);}
	.st17{fill:url(#SVGID_15_);}
</style>
<rect class="st0" width="100" height="100"/>
<g>
	<g>
		<g>
			<g>
				
					<linearGradient id="SVGID_1_" gradientUnits="userSpaceOnUse" x1="1.3121" y1="39.194" x2="98.6874" y2="39.194" gradientTransform="matrix(1 0 0 -1 0 102)">
					<stop  offset="0" style="stop-color:#0069FF"/>
					<stop  offset="1" style="stop-color:#0069FF"/>
				</linearGradient>
				<path class="st1" d="M2.3,63.8c-0.3,0-0.5-0.1-0.7-0.3c-0.2-0.2-0.3-0.5-0.3-0.7s0.1-0.5,0.3-0.7c0.4-0.4,1-0.4,1.4,0
					c0.2,0.2,0.3,0.4,0.3,0.7c0,0.3-0.1,0.5-0.3,0.7C2.8,63.7,2.6,63.8,2.3,63.8z"/>
			</g>
			<g>
				
					<linearGradient id="SVGID_2_" gradientUnits="userSpaceOnUse" x1="1.3802" y1="42.6104" x2="96.7402" y2="42.6104" gradientTransform="matrix(1 0 0 -1 0 102)">
					<stop  offset="0" style="stop-color:#0069FF"/>
					<stop  offset="1" style="stop-color:#0069FF"/>
				</linearGradient>
				<path class="st2" d="M94,61.9c-0.5-0.1-0.9-0.7-0.7-1.2l0,0c0.1-0.5,0.7-0.8,1.2-0.7l0,0c0.5,0.1,0.8,0.7,0.7,1.2l0,0
					c-0.1,0.5-0.5,0.8-1,0.8l0,0C94.2,62,94.1,62,94,61.9z M4.7,61.1c-0.1-0.5,0.2-1.1,0.7-1.2l0,0c0.5-0.1,1.1,0.2,1.2,0.7l0,0
					c0.1,0.5-0.2,1.1-0.7,1.2l0,0c-0.1,0-0.2,0-0.2,0l0,0C5.2,61.9,4.8,61.6,4.7,61.1z M90.2,61.1c-0.5-0.1-0.9-0.6-0.8-1.1l0,0
					c0.1-0.6,0.6-0.9,1.2-0.8l0,0c0.5,0.1,0.9,0.6,0.8,1.2l0,0c-0.1,0.5-0.5,0.8-1,0.8l0,0C90.3,61.1,90.2,61.1,90.2,61.1z
					 M8.7,60.3c-0.1-0.5,0.3-1.1,0.8-1.1l0,0c0.5-0.1,1.1,0.3,1.1,0.8l0,0c0.1,0.6-0.3,1.1-0.8,1.2l0,0c0,0-0.1,0-0.1,0l0,0
					C9.2,61.1,8.8,60.8,8.7,60.3z M86.2,60.6c-0.6-0.1-0.9-0.6-0.9-1.1l0,0c0.1-0.6,0.6-0.9,1.1-0.9l0,0c0.5,0.1,0.9,0.6,0.9,1.1
					l0,0c-0.1,0.5-0.5,0.9-1,0.9l0,0C86.3,60.6,86.2,60.6,86.2,60.6z M12.7,59.7c-0.1-0.6,0.3-1.1,0.9-1.1l0,0l0,0l0,0
					c0.5-0.1,1,0.3,1.1,0.9l0,0c0.1,0.5-0.3,1-0.9,1.1l0,0c0,0-0.1,0-0.1,0l0,0C13.2,60.5,12.7,60.2,12.7,59.7z M82.2,60.1
					c-0.5-0.1-1-0.5-0.9-1.1l0,0c0-0.6,0.5-1,1.1-0.9l0,0c0.6,0,1,0.5,0.9,1.1l0,0C83.2,59.7,82.8,60.1,82.2,60.1L82.2,60.1
					C82.3,60.1,82.2,60.1,82.2,60.1z M16.7,59.2c-0.1-0.6,0.4-1,0.9-1.1l0,0l0,0l0,0c0.5,0,1,0.4,1.1,0.9l0,0c0.1,0.5-0.4,1-0.9,1.1
					l0,0c0,0-0.1,0-0.1,0l0,0C17.2,60.1,16.7,59.7,16.7,59.2z M78.2,59.8c-0.6,0-1-0.5-0.9-1.1l0,0c0-0.6,0.5-1,1.1-0.9l0,0
					c0.6,0,1,0.5,0.9,1.1l0,0C79.2,59.4,78.8,59.8,78.2,59.8L78.2,59.8C78.2,59.8,78.2,59.8,78.2,59.8z M20.7,58.8
					c0-0.5,0.4-1,0.9-1.1l0,0l0,0l0,0c0.6,0,1,0.4,1.1,0.9l0,0c0,0.6-0.4,1-0.9,1.1l0,0c0,0-0.1,0-0.1,0l0,0
					C21.2,59.8,20.8,59.4,20.7,58.8z M73.2,58.4c0-0.6,0.5-1,1.1-0.9l0,0l0,0l0,0c0.5,0,1,0.5,0.9,1.1l0,0c0,0.5-0.5,1-1.1,0.9v0
					C73.6,59.5,73.2,59,73.2,58.4z M24.8,58.5c0-0.5,0.4-1,0.9-1.1l0,0l0,0l0,0c0.5,0,1,0.4,1.1,0.9l0,0c0,0.5-0.4,1-0.9,1l0,0
					c0,0,0,0-0.1,0l0,0C25.2,59.5,24.8,59.1,24.8,58.5z M70.2,59.3L70.2,59.3c-0.6,0-1-0.5-1-1l0,0c0-0.5,0.5-1,1-1l0,0c0,0,0,0,0,0
					l0,0c0.6,0,1,0.5,1,1l0,0C71.2,58.8,70.7,59.3,70.2,59.3L70.2,59.3C70.2,59.3,70.2,59.3,70.2,59.3z M28.8,58.3
					c0-0.5,0.4-1,0.9-1l0,0c0.6,0,1,0.4,1.1,1l0,0c0,0.5-0.4,1-1,1l0,0c0,0,0,0,0,0l0,0C29.3,59.3,28.8,58.8,28.8,58.3z M66.1,59.1
					c-0.5,0-1-0.5-1-1l0,0c0-0.5,0.5-1,1-1l0,0c0.5,0,1,0.5,1,1l0,0C67.1,58.7,66.7,59.1,66.1,59.1L66.1,59.1
					C66.1,59.1,66.1,59.1,66.1,59.1z M32.8,58.1c0-0.5,0.4-1,1-1l0,0c0.5,0,1,0.4,1,1l0,0c0,0.5-0.4,1-1,1l0,0c0,0,0,0,0,0l0,0
					C33.3,59.1,32.8,58.7,32.8,58.1z M62.1,59c-0.5,0-1-0.5-1-1l0,0c0-0.6,0.5-1,1-1l0,0c0.6,0,1,0.5,1,1l0,0
					C63.1,58.5,62.7,59,62.1,59L62.1,59C62.1,59,62.1,59,62.1,59z M36.9,58c0-0.6,0.4-1,1-1l0,0l0,0l0,0c0.5,0,1,0.4,1,1l0,0
					c0,0.5-0.4,1-1,1l0,0c0,0,0,0,0,0l0,0C37.3,59,36.9,58.5,36.9,58z M40.9,57.9c0-0.5,0.4-1,1-1l0,0c0,0,0,0,0,0l0,0
					c0.5,0,1,0.4,1,1l0,0c0,0.5-0.4,1-1,1l0,0c0,0,0,0,0,0l0,0C41.4,58.9,40.9,58.4,40.9,57.9z M58.1,58.9c-0.5,0-1-0.5-1-1l0,0
					c0-0.5,0.5-1,1-1l0,0l0,0l0,0c0.5,0,1,0.5,1,1l0,0C59.1,58.4,58.6,58.9,58.1,58.9L58.1,58.9C58.1,58.9,58.1,58.9,58.1,58.9z
					 M54,58.8c-0.6,0-1-0.5-1-1l0,0c0-0.5,0.5-1,1-1l0,0c0.5,0,1,0.5,1,1l0,0C55,58.4,54.6,58.8,54,58.8L54,58.8L54,58.8z
					 M44.9,57.8c0-0.6,0.4-1,1-1l0,0c0.6,0,1,0.4,1,1l0,0c0,0.5-0.4,1-1,1l0,0l0,0l0,0C45.4,58.8,45,58.4,44.9,57.8z M49,57.8
					c0-0.5,0.4-1,1-1l0,0c0.5,0,1,0.5,1,1l0,0c0,0.5-0.5,1-1,1l0,0C49.4,58.8,49,58.3,49,57.8z"/>
			</g>
			
				<linearGradient id="SVGID_3_" gradientUnits="userSpaceOnUse" x1="1.3124" y1="39.2" x2="98.6876" y2="39.2" gradientTransform="matrix(1 0 0 -1 0 102)">
				<stop  offset="0" style="stop-color:#0069FF"/>
				<stop  offset="1" style="stop-color:#0069FF"/>
			</linearGradient>
			<line class="st3" x1="97.7" y1="62.8" x2="97.7" y2="62.8"/>
		</g>
	</g>
	<polygon class="st0" points="32.3,44 29.3,39.4 15.6,39.4 13.5,44 8.4,44 17.2,75.6 77.3,75.6 68.4,44 	"/>
	
		<linearGradient id="SVGID_4_" gradientUnits="userSpaceOnUse" x1="35.923" y1="44.5" x2="11.504" y2="44.5" gradientTransform="matrix(1 0 0 -1 0 102)">
		<stop  offset="0" style="stop-color:#0069FF"/>
		<stop  offset="1" style="stop-color:#0069FF;stop-opacity:0.2"/>
	</linearGradient>
	<polygon class="st4" points="32.3,44 29.3,39.4 15.6,39.4 13.5,44 8.4,44 17.2,75.6 77.3,75.6 68.4,44 	"/>
	<g>
		<rect x="19.2" y="24.4" class="st0" width="51.6" height="50.8"/>
		
			<linearGradient id="SVGID_5_" gradientUnits="userSpaceOnUse" x1="19.2" y1="52.2" x2="70.8" y2="52.2" gradientTransform="matrix(1 0 0 -1 0 102)">
			<stop  offset="0" style="stop-color:#0069FF"/>
			<stop  offset="1" style="stop-color:#0069FF"/>
		</linearGradient>
		<path class="st5" d="M68.8,26.4v46.8H21.2V26.4H68.8 M70.8,24.4H19.2v50.8h51.6V24.4L70.8,24.4z"/>
	</g>
	<line class="st6" x1="29.1" y1="37.3" x2="29.1" y2="51.3"/>
	<line class="st7" x1="56.5" y1="37.3" x2="56.5" y2="74.9"/>
	
		<linearGradient id="SVGID_6_" gradientUnits="userSpaceOnUse" x1="20.6" y1="64.7" x2="69.4" y2="64.7" gradientTransform="matrix(1 0 0 -1 0 102)">
		<stop  offset="0" style="stop-color:#0069FF"/>
		<stop  offset="1" style="stop-color:#0069FF;stop-opacity:0.2"/>
	</linearGradient>
	<line class="st8" x1="69.4" y1="37.3" x2="20.6" y2="37.3"/>
	
		<linearGradient id="SVGID_7_" gradientUnits="userSpaceOnUse" x1="20.6" y1="60.2" x2="69.4" y2="60.2" gradientTransform="matrix(1 0 0 -1 0 102)">
		<stop  offset="0" style="stop-color:#0069FF"/>
		<stop  offset="1" style="stop-color:#0069FF;stop-opacity:0.2"/>
	</linearGradient>
	<line class="st9" x1="69.4" y1="41.8" x2="20.6" y2="41.8"/>
	
		<linearGradient id="SVGID_8_" gradientUnits="userSpaceOnUse" x1="20.6" y1="50.6" x2="69.4" y2="50.6" gradientTransform="matrix(1 0 0 -1 0 102)">
		<stop  offset="0" style="stop-color:#0069FF"/>
		<stop  offset="1" style="stop-color:#0069FF;stop-opacity:0.2"/>
	</linearGradient>
	<line class="st10" x1="69.4" y1="51.4" x2="20.6" y2="51.4"/>
	
		<linearGradient id="SVGID_9_" gradientUnits="userSpaceOnUse" x1="20.6" y1="55.5" x2="69.4" y2="55.5" gradientTransform="matrix(1 0 0 -1 0 102)">
		<stop  offset="0" style="stop-color:#0069FF"/>
		<stop  offset="1" style="stop-color:#0069FF;stop-opacity:0.2"/>
	</linearGradient>
	<line class="st11" x1="69.4" y1="46.5" x2="20.6" y2="46.5"/>
	
		<linearGradient id="SVGID_10_" gradientUnits="userSpaceOnUse" x1="23.8" y1="71.5" x2="38.7495" y2="71.5" gradientTransform="matrix(1 0 0 -1 0 102)">
		<stop  offset="0" style="stop-color:#0069FF"/>
		<stop  offset="1" style="stop-color:#0069FF;stop-opacity:0.2"/>
	</linearGradient>
	<line class="st12" x1="38.8" y1="30.5" x2="23.8" y2="30.5"/>
	
		<linearGradient id="SVGID_11_" gradientUnits="userSpaceOnUse" x1="23.8" y1="69.2" x2="38.7473" y2="69.2" gradientTransform="matrix(1 0 0 -1 0 102)">
		<stop  offset="0" style="stop-color:#0069FF"/>
		<stop  offset="1" style="stop-color:#0069FF;stop-opacity:0.2"/>
	</linearGradient>
	<line class="st13" x1="38.8" y1="32.8" x2="23.8" y2="32.8"/>
	<g>
		<polygon class="st0" points="61,45 61,41.4 45.7,41.4 42.2,45 37.2,45 17.2,75.6 77.3,75.6 97.2,45 		"/>
	</g>
	<g>
		
			<linearGradient id="SVGID_12_" gradientUnits="userSpaceOnUse" x1="21.4062" y1="43.5" x2="94.7997" y2="43.5" gradientTransform="matrix(1 0 0 -1 0 102)">
			<stop  offset="0" style="stop-color:#0069FF"/>
			<stop  offset="1" style="stop-color:#0069FF;stop-opacity:0.2"/>
		</linearGradient>
		<polygon class="st14" points="61,45 61,41.4 45.7,41.4 42.2,45 37.2,45 17.2,75.6 77.3,75.6 97.2,45 		"/>
	</g>
	<g>
		<g>
			<g>
				
					<linearGradient id="SVGID_13_" gradientUnits="userSpaceOnUse" x1="1.3126" y1="39.194" x2="98.6878" y2="39.194" gradientTransform="matrix(1 0 0 -1 0 102)">
					<stop  offset="0" style="stop-color:#0069FF"/>
					<stop  offset="1" style="stop-color:#0069FF"/>
				</linearGradient>
				<path class="st15" d="M97.7,63.8c-0.3,0-0.5-0.1-0.7-0.3c-0.2-0.2-0.3-0.5-0.3-0.7s0.1-0.5,0.3-0.7c0.4-0.4,1-0.4,1.4,0
					c0.2,0.2,0.3,0.5,0.3,0.7s-0.1,0.5-0.3,0.7C98.2,63.7,98,63.8,97.7,63.8z"/>
			</g>
			<g>
				
					<linearGradient id="SVGID_14_" gradientUnits="userSpaceOnUse" x1="3.2596" y1="35.8885" x2="98.6158" y2="35.8885" gradientTransform="matrix(1 0 0 -1 0 102)">
					<stop  offset="0" style="stop-color:#0069FF"/>
					<stop  offset="1" style="stop-color:#0069FF"/>
				</linearGradient>
				<path class="st16" d="M49,67.7c0-0.6,0.4-1,1-1l0,0c0.5,0,1,0.4,1,1l0,0c0,0.5-0.5,1-1,1l0,0C49.4,68.7,49,68.2,49,67.7z
					 M53,67.7c0-0.5,0.4-1,1-1l0,0c0.5,0,1,0.4,1,1l0,0c0,0.6-0.4,1-1,1l0,0c0,0,0,0,0,0l0,0C53.5,68.7,53,68.2,53,67.7z M45.9,68.7
					c-0.5,0-1-0.5-1-1l0,0c0-0.5,0.5-1,1-1l0,0c0.6,0,1,0.5,1,1l0,0C46.9,68.2,46.5,68.7,45.9,68.7L45.9,68.7L45.9,68.7z M41.9,68.6
					c-0.6,0-1-0.5-1-1l0,0c0-0.5,0.5-1,1-1l0,0c0.6,0,1,0.5,1,1l0,0C42.9,68.2,42.5,68.6,41.9,68.6L41.9,68.6L41.9,68.6z M58.1,68.6
					c-0.5,0-1-0.4-1-1l0,0c0-0.5,0.4-1,1-1l0,0c0.6,0,1,0.4,1,1l0,0C59.1,68.2,58.7,68.6,58.1,68.6L58.1,68.6
					C58.1,68.6,58.1,68.6,58.1,68.6z M62.2,68.5c-0.6,0-1-0.4-1-1l0,0c0-0.5,0.4-1,1-1l0,0c0.5,0,1,0.4,1,1l0,0
					C63.1,68.1,62.7,68.5,62.2,68.5L62.2,68.5L62.2,68.5z M37.8,68.5c-0.6,0-1-0.5-1-1l0,0c0-0.5,0.5-1,1-1l0,0c0.5,0,1,0.5,1,1l0,0
					C38.9,68.1,38.4,68.5,37.8,68.5L37.8,68.5C37.9,68.5,37.8,68.5,37.8,68.5z M66.2,68.4c-0.5,0-1-0.4-1-1l0,0c0-0.5,0.4-1,1-1h0
					c0.5,0,1,0.4,1,1l0,0C67.2,67.9,66.8,68.4,66.2,68.4L66.2,68.4C66.2,68.4,66.2,68.4,66.2,68.4z M33.8,68.4c-0.6,0-1-0.5-1-1l0,0
					c0-0.6,0.5-1,1-1l0,0c0.6,0,1,0.5,1,1l0,0C34.8,68,34.4,68.4,33.8,68.4L33.8,68.4C33.8,68.4,33.8,68.4,33.8,68.4z M69.2,67.3
					c0-0.6,0.4-1,1-1.1l0,0c0.5,0,1,0.4,1,1l0,0c0,0.6-0.4,1-1,1l0,0c0,0,0,0,0,0l0,0C69.7,68.2,69.2,67.8,69.2,67.3z M29.7,68.2
					c-0.5,0-1-0.5-0.9-1l0,0c0-0.5,0.5-1,1-1l0,0c0.5,0,1,0.5,1,1.1l0,0C30.8,67.8,30.3,68.2,29.7,68.2L29.7,68.2
					C29.8,68.2,29.8,68.2,29.7,68.2z M73.2,67.1c0-0.5,0.4-1,0.9-1.1l0,0c0.6,0,1,0.4,1.1,0.9l0,0c0,0.5-0.4,1-0.9,1.1l0,0
					c0,0,0,0-0.1,0l0,0C73.7,68,73.3,67.6,73.2,67.1z M25.7,68c-0.6,0-1-0.5-0.9-1.1l0,0c0-0.5,0.5-1,1.1-0.9l0,0c0.5,0,1,0.5,0.9,1
					l0,0C26.7,67.6,26.3,68,25.7,68L25.7,68C25.7,68,25.7,68,25.7,68z M77.3,66.8c0-0.5,0.4-1,0.9-1.1l0,0c0.5-0.1,1,0.4,1.1,0.9
					l0,0c0,0.5-0.4,1-0.9,1.1l0,0c0,0,0,0-0.1,0l0,0C77.8,67.7,77.3,67.3,77.3,66.8z M21.6,67.7c-0.5,0-1-0.5-0.9-1.1l0,0
					c0.1-0.5,0.5-1,1.1-0.9l0,0c0.5,0,1,0.5,0.9,1.1l0,0C22.7,67.3,22.2,67.7,21.6,67.7L21.6,67.7C21.7,67.7,21.7,67.7,21.6,67.7z
					 M81.3,66.5c-0.1-0.6,0.4-1,0.9-1.1l0,0c0.5-0.1,1,0.4,1.1,0.9l0,0c0,0.5-0.3,1-0.9,1.1l0,0l0,0l0,0c0,0-0.1,0-0.1,0l0,0
					C81.8,67.4,81.4,67,81.3,66.5z M17.6,67.4c-0.5,0-1-0.5-0.9-1.1l0,0c0.1-0.5,0.5-1,1.1-0.9l0,0c0.5,0.1,0.9,0.5,0.9,1.1l0,0
					c-0.1,0.5-0.5,0.9-1,0.9l0,0C17.7,67.4,17.6,67.4,17.6,67.4z M85.3,66.1c-0.1-0.5,0.3-1,0.9-1.1l0,0c0.5-0.1,1,0.3,1.1,0.9l0,0
					c0.1,0.5-0.3,1-0.9,1.1l0,0l0,0l0,0c0,0-0.1,0-0.1,0l0,0C85.8,67,85.4,66.6,85.3,66.1z M13.5,66.9L13.5,66.9L13.5,66.9
					c-0.5-0.1-0.9-0.6-0.9-1.1l0,0c0.1-0.5,0.6-0.9,1.1-0.9l0,0c0.5,0.1,0.9,0.6,0.9,1.1l0,0c-0.1,0.5-0.5,0.9-1,0.9l0,0
					C13.6,66.9,13.6,66.9,13.5,66.9z M89.3,65.6c-0.1-0.5,0.3-1.1,0.8-1.1l0,0c0.5-0.1,1,0.3,1.1,0.8l0,0c0.1,0.5-0.3,1-0.8,1.1l0,0
					l0,0l0,0c-0.1,0-0.1,0-0.2,0l0,0C89.8,66.4,89.4,66,89.3,65.6z M9.5,66.3c-0.5-0.1-0.9-0.6-0.8-1.2l0,0c0.1-0.5,0.6-0.9,1.1-0.8
					l0,0c0.5,0.1,0.9,0.6,0.8,1.2l0,0c-0.1,0.5-0.5,0.8-1,0.8l0,0C9.6,66.3,9.6,66.3,9.5,66.3z M93.3,64.8c-0.1-0.5,0.2-1.1,0.7-1.2
					l0,0c0.5-0.1,1.1,0.2,1.2,0.7l0,0c0.1,0.5-0.2,1.1-0.7,1.2l0,0l0,0l0,0c-0.1,0-0.2,0-0.2,0l0,0C93.8,65.6,93.5,65.3,93.3,64.8z
					 M5.5,65.5c-0.5-0.1-0.9-0.7-0.7-1.2l0,0c0.1-0.5,0.7-0.9,1.2-0.7l0,0c0.5,0.1,0.9,0.7,0.7,1.2l0,0c-0.1,0.4-0.5,0.7-1,0.7l0,0
					C5.6,65.5,5.5,65.5,5.5,65.5z"/>
			</g>
			<g>
				
					<linearGradient id="SVGID_15_" gradientUnits="userSpaceOnUse" x1="1.3121" y1="39.194" x2="98.6874" y2="39.194" gradientTransform="matrix(1 0 0 -1 0 102)">
					<stop  offset="0" style="stop-color:#0069FF"/>
					<stop  offset="1" style="stop-color:#0069FF"/>
				</linearGradient>
				<path class="st17" d="M2.3,63.8c-0.3,0-0.5-0.1-0.7-0.3c-0.2-0.2-0.3-0.5-0.3-0.7s0.1-0.5,0.3-0.7c0.4-0.4,1-0.4,1.4,0
					c0.2,0.2,0.3,0.4,0.3,0.7c0,0.3-0.1,0.5-0.3,0.7C2.8,63.7,2.6,63.8,2.3,63.8z"/>
			</g>
		</g>
	</g>
</g>
</svg>
