<?xml version="1.0" encoding="utf-8"?>
<!-- Generator: Adobe Illustrator 19.2.0, SVG Export Plug-In . SVG Version: 6.00 Build 0)  -->
<svg version="1.1" id="Layer_1" xmlns="http://www.w3.org/2000/svg" xmlns:xlink="http://www.w3.org/1999/xlink" x="0px" y="0px"
	 viewBox="0 0 100 100" style="enable-background:new 0 0 100 100;" xml:space="preserve">
<style type="text/css">
	.st0{fill:#FFFFFF;}
	.st1{fill:#FFFFFF;stroke:url(#SVGID_1_);stroke-width:2;stroke-linecap:round;stroke-miterlimit:10;}
	.st2{fill:url(#SVGID_2_);}
	.st3{fill:url(#SVGID_3_);}
	.st4{fill:none;stroke:#FFFFFF;stroke-width:2;stroke-miterlimit:10;}
	.st5{fill:#FFFFFF;stroke:url(#SVGID_4_);stroke-width:2;stroke-linecap:round;stroke-miterlimit:10;}
	.st6{fill:none;stroke:#0069FF;stroke-width:2;stroke-miterlimit:10;}
	.st7{fill:url(#SVGID_5_);}
	.st8{fill:#0069FF;}
</style>
<rect class="st0" width="100" height="100"/>
<g>
	<linearGradient id="SVGID_1_" gradientUnits="userSpaceOnUse" x1="15.2661" y1="51.1043" x2="81.8135" y2="51.1043">
		<stop  offset="0" style="stop-color:#0069FF"/>
		<stop  offset="1" style="stop-color:#0069FF"/>
	</linearGradient>
	<polyline class="st1" points="16.3,71.2 16.3,31 80.8,31 80.8,71.2 	"/>
	<rect x="18" y="32" class="st0" width="61" height="39.5"/>
	<linearGradient id="SVGID_2_" gradientUnits="userSpaceOnUse" x1="85.198" y1="46.6138" x2="59.1109" y2="22.1572">
		<stop  offset="0" style="stop-color:#0069FF"/>
		<stop  offset="1" style="stop-color:#0069FF;stop-opacity:0"/>
	</linearGradient>
	<path class="st2" d="M67.4,47c-4.2-4.2-5.7-11.2-4.1-15.7c0.3-0.9,4.6-0.4,5.3-1.1c4.9-4.9,11.6-5.7,16.4-0.9s1.4,6.2-3.5,11
		c-1.4,1.4,1.1,10.8-0.6,11.1C77.3,52.3,70.9,50.6,67.4,47z"/>
	<g>
		<linearGradient id="SVGID_3_" gradientUnits="userSpaceOnUse" x1="48.5398" y1="39.2572" x2="48.5398" y2="76.287">
			<stop  offset="0" style="stop-color:#0069FF"/>
			<stop  offset="1" style="stop-color:#0069FF;stop-opacity:0"/>
		</linearGradient>
		<polygon class="st3" points="22.2,38.8 74.8,38.8 74.8,73.1 22.2,73.1 		"/>
		<line class="st4" x1="41.3" y1="47.1" x2="55.3" y2="47.1"/>
		<line class="st4" x1="29.2" y1="47.1" x2="37.3" y2="47.1"/>
		<line class="st4" x1="29.2" y1="51.3" x2="49.3" y2="51.3"/>
		<line class="st4" x1="49.3" y1="55.5" x2="55.3" y2="55.5"/>
		<line class="st4" x1="29.2" y1="55.5" x2="45.8" y2="55.5"/>
		<line class="st4" x1="29.2" y1="63.3" x2="41.3" y2="63.3"/>
		<line class="st4" x1="41.3" y1="67.5" x2="50.8" y2="67.5"/>
		<line class="st4" x1="29.2" y1="67.5" x2="37.3" y2="67.5"/>
	</g>
	<g>
		
			<linearGradient id="SVGID_4_" gradientUnits="userSpaceOnUse" x1="-733.513" y1="1840.8035" x2="-706.9406" y2="1840.8035" gradientTransform="matrix(0.7071 -0.7071 0.7071 0.7071 -712.7017 -1776.1323)">
			<stop  offset="0" style="stop-color:#0069FF"/>
			<stop  offset="1" style="stop-color:#0069FF"/>
		</linearGradient>
		
			<ellipse transform="matrix(0.7071 -0.7071 0.7071 0.7071 -1.2664 66.5217)" class="st5" cx="79.7" cy="34.8" rx="12.3" ry="12.3"/>
		<line class="st6" x1="79.7" y1="27.9" x2="79.7" y2="36.6"/>
		<line class="st6" x1="79.7" y1="42.6" x2="79.7" y2="39"/>
	</g>
	<linearGradient id="SVGID_5_" gradientUnits="userSpaceOnUse" x1="11.8292" y1="74.3721" x2="131.8446" y2="74.3721">
		<stop  offset="0" style="stop-color:#0069FF"/>
		<stop  offset="0.1506" style="stop-color:#2D84FF"/>
		<stop  offset="0.4641" style="stop-color:#86B8FF"/>
		<stop  offset="0.7198" style="stop-color:#C7DEFF"/>
		<stop  offset="0.9046" style="stop-color:#F0F6FF"/>
		<stop  offset="1" style="stop-color:#FFFFFF"/>
	</linearGradient>
	<path class="st7" d="M89,71.2H8v0.4c0,3.2,2.6,5.9,5.9,5.9h69.2c3.2,0,5.9-2.6,5.9-5.9V71.2z"/>
	<g>
		<path class="st8" d="M47.4,35.3c0-0.6,0.4-1,1-1l0,0c0.5,0,1,0.4,1,1l0,0c0,0.5-0.5,1-1,1l0,0C47.8,36.3,47.4,35.8,47.4,35.3z"/>
	</g>
</g>
</svg>
