<?xml version="1.0" encoding="utf-8"?>
<!-- Generator: Adobe Illustrator 19.2.0, SVG Export Plug-In . SVG Version: 6.00 Build 0)  -->
<svg version="1.1" id="Layer_1" xmlns="http://www.w3.org/2000/svg" xmlns:xlink="http://www.w3.org/1999/xlink" x="0px" y="0px"
	 viewBox="0 0 100 100" style="enable-background:new 0 0 100 100;" xml:space="preserve">
<style type="text/css">
	.st0{fill:#FFFFFF;}
	.st1{fill:#FFFFFF;stroke:#0069FF;stroke-width:2;stroke-linecap:round;stroke-miterlimit:10;}
	.st2{fill:url(#SVGID_1_);}
	.st3{fill:url(#SVGID_2_);}
	.st4{fill:#0069FF;}
	.st5{fill:url(#SVGID_3_);}
	.st6{fill:url(#SVGID_4_);}
	.st7{fill:url(#SVGID_5_);}
	.st8{fill:url(#SVGID_6_);}
	.st9{fill:url(#SVGID_7_);}
	.st10{fill:url(#SVGID_8_);}
	.st11{fill:url(#path1948_1_);}
	.st12{fill:url(#path1950_1_);}
	.st13{fill:#FFFFFF;stroke:url(#SVGID_9_);stroke-width:2;stroke-miterlimit:10;}
	.st14{fill:url(#SVGID_10_);}
	.st15{fill:url(#SVGID_11_);}
</style>
<rect class="st0" width="100" height="100"/>
<g>
	
		<rect x="1.4" y="39.5" transform="matrix(-1 -5.604063e-11 5.604063e-11 -1 26.0224 101.3702)" class="st1" width="23.3" height="22.3"/>
	
		<linearGradient id="SVGID_1_" gradientUnits="userSpaceOnUse" x1="-418.6581" y1="8006.2275" x2="-411.11" y2="8006.2275" gradientTransform="matrix(1 0 0 -1 419.6435 8056.8838)">
		<stop  offset="0" style="stop-color:#0069FF;stop-opacity:0"/>
		<stop  offset="1" style="stop-color:#0069FF;stop-opacity:0.3"/>
	</linearGradient>
	<polygon class="st2" points="6.4,39.4 8.4,39.4 8.4,61.9 1,61.9 	"/>
	
		<rect x="8.9" y="34" transform="matrix(-1 -4.901247e-11 4.901247e-11 -1 56.0684 99.8357)" class="st1" width="38.2" height="31.9"/>
	<rect x="78.8" y="39.5" class="st1" width="19.8" height="22.3"/>
	
		<linearGradient id="SVGID_2_" gradientUnits="userSpaceOnUse" x1="3360.4978" y1="51.0007" x2="3368.2751" y2="51.0007" gradientTransform="matrix(-1 0 0 1 3459.5129 0)">
		<stop  offset="0" style="stop-color:#0069FF;stop-opacity:0"/>
		<stop  offset="1" style="stop-color:#0069FF;stop-opacity:0.3"/>
	</linearGradient>
	<polygon class="st3" points="99,62 91.3,61.9 91.3,40 93.7,40 	"/>
	<rect x="56.3" y="34" class="st1" width="34.7" height="31.9"/>
	<g>
		<g>
			<path class="st4" d="M17.8,29.1c-0.3,0-0.5-0.1-0.7-0.3c-0.2-0.2-0.3-0.5-0.3-0.7c0-0.3,0.1-0.5,0.3-0.7c0.4-0.4,1-0.4,1.4,0
				c0.2,0.2,0.3,0.4,0.3,0.7c0,0.3-0.1,0.5-0.3,0.7C18.3,29,18,29.1,17.8,29.1z"/>
		</g>
		<g>
			<path class="st4" d="M16.8,24.2c0-0.6,0.4-1,1-1l0,0c0.5,0,1,0.4,1,1l0,0c0,0.5-0.5,1-1,1l0,0C17.2,25.2,16.8,24.7,16.8,24.2z"/>
		</g>
		<g>
			<path class="st4" d="M17.8,21.3c-0.3,0-0.5-0.1-0.7-0.3c-0.2-0.2-0.3-0.5-0.3-0.7c0-0.3,0.1-0.5,0.3-0.7c0.4-0.4,1-0.4,1.4,0
				c0.2,0.2,0.3,0.4,0.3,0.7c0,0.3-0.1,0.5-0.3,0.7C18.3,21.1,18,21.3,17.8,21.3z"/>
		</g>
		<g>
			<path class="st4" d="M25.5,20.3c0-0.6,0.5-1,1-1l0,0c0.6,0,1,0.4,1,1l0,0c0,0.5-0.4,1-1,1l0,0C25.9,21.3,25.5,20.8,25.5,20.3z
				 M21.1,20.3c0-0.6,0.5-1,1-1l0,0c0.6,0,1,0.4,1,1l0,0c0,0.5-0.4,1-1,1l0,0C21.6,21.3,21.1,20.8,21.1,20.3z"/>
		</g>
		<g>
			<path class="st4" d="M30.8,21.3c-0.3,0-0.5-0.1-0.7-0.3c-0.2-0.2-0.3-0.4-0.3-0.7c0-0.3,0.1-0.5,0.3-0.7c0.4-0.4,1-0.4,1.4,0
				c0.2,0.2,0.3,0.5,0.3,0.7c0,0.3-0.1,0.5-0.3,0.7C31.4,21.2,31.1,21.3,30.8,21.3z"/>
		</g>
	</g>
	<g>
		<g>
			<path class="st4" d="M68.5,21.3c-0.3,0-0.5-0.1-0.7-0.3c-0.2-0.2-0.3-0.5-0.3-0.7c0-0.3,0.1-0.5,0.3-0.7c0.4-0.4,1-0.4,1.4,0
				c0.2,0.2,0.3,0.5,0.3,0.7c0,0.3-0.1,0.5-0.3,0.7C69,21.1,68.7,21.3,68.5,21.3z"/>
		</g>
		<g>
			<path class="st4" d="M76.2,20.3c0-0.6,0.4-1,1-1l0,0c0.6,0,1,0.4,1,1l0,0c0,0.5-0.4,1-1,1l0,0C76.7,21.3,76.2,20.8,76.2,20.3z
				 M71.8,20.3c0-0.6,0.5-1,1-1l0,0c0.5,0,1,0.4,1,1l0,0c0,0.5-0.5,1-1,1l0,0C72.3,21.3,71.8,20.8,71.8,20.3z"/>
		</g>
		<g>
			<path class="st4" d="M81.6,21.3c-0.3,0-0.5-0.1-0.7-0.3c-0.2-0.2-0.3-0.5-0.3-0.7c0-0.3,0.1-0.5,0.3-0.7c0.4-0.4,1-0.4,1.4,0
				c0.2,0.2,0.3,0.5,0.3,0.7c0,0.3-0.1,0.5-0.3,0.7C82.1,21.1,81.8,21.3,81.6,21.3z"/>
		</g>
		<g>
			<path class="st4" d="M80.6,24.2c0-0.6,0.4-1,1-1l0,0c0.6,0,1,0.4,1,1l0,0c0,0.5-0.4,1-1,1l0,0C81,25.2,80.6,24.7,80.6,24.2z"/>
		</g>
		<g>
			<path class="st4" d="M81.6,29.1c-0.3,0-0.5-0.1-0.7-0.3c-0.2-0.2-0.3-0.4-0.3-0.7c0-0.3,0.1-0.5,0.3-0.7c0.4-0.4,1-0.4,1.4,0
				c0.2,0.2,0.3,0.4,0.3,0.7c0,0.3-0.1,0.5-0.3,0.7C82.1,29,81.8,29.1,81.6,29.1z"/>
		</g>
	</g>
	<g>
		<g>
			<path class="st4" d="M81.6,72.4c-0.3,0-0.5-0.1-0.7-0.3c-0.2-0.2-0.3-0.4-0.3-0.7c0-0.3,0.1-0.5,0.3-0.7c0.4-0.4,1-0.4,1.4,0
				c0.2,0.2,0.3,0.4,0.3,0.7c0,0.3-0.1,0.5-0.3,0.7C82.1,72.3,81.8,72.4,81.6,72.4z"/>
		</g>
		<g>
			<path class="st4" d="M80.6,75.6c0-0.5,0.4-1,1-1l0,0c0.6,0,1,0.5,1,1l0,0c0,0.5-0.4,1-1,1l0,0C81,76.6,80.6,76.1,80.6,75.6z"/>
		</g>
		<g>
			<path class="st4" d="M81.6,80.7c-0.3,0-0.5-0.1-0.7-0.3c-0.2-0.2-0.3-0.5-0.3-0.7c0-0.3,0.1-0.5,0.3-0.7c0.4-0.4,1-0.4,1.4,0
				c0.2,0.2,0.3,0.5,0.3,0.7c0,0.3-0.1,0.5-0.3,0.7C82.1,80.6,81.8,80.7,81.6,80.7z"/>
		</g>
		<g>
			<path class="st4" d="M76.2,79.7c0-0.6,0.4-1,1-1l0,0c0.6,0,1,0.4,1,1l0,0c0,0.5-0.4,1-1,1l0,0C76.7,80.7,76.2,80.3,76.2,79.7z
				 M71.8,79.7c0-0.6,0.4-1,1-1l0,0c0.5,0,1,0.4,1,1l0,0c0,0.5-0.5,1-1,1l0,0C72.3,80.7,71.8,80.3,71.8,79.7z"/>
		</g>
		<g>
			<path class="st4" d="M68.5,80.7c-0.3,0-0.5-0.1-0.7-0.3c-0.2-0.2-0.3-0.4-0.3-0.7c0-0.3,0.1-0.5,0.3-0.7c0.4-0.4,1-0.4,1.4,0
				c0.2,0.2,0.3,0.5,0.3,0.7c0,0.3-0.1,0.5-0.3,0.7C69,80.6,68.7,80.7,68.5,80.7z"/>
		</g>
	</g>
	<g>
		<g>
			<path class="st4" d="M30.8,80.7c-0.3,0-0.5-0.1-0.7-0.3c-0.2-0.2-0.3-0.5-0.3-0.7c0-0.3,0.1-0.5,0.3-0.7c0.4-0.4,1-0.4,1.4,0
				c0.2,0.2,0.3,0.4,0.3,0.7c0,0.3-0.1,0.5-0.3,0.7C31.4,80.6,31.1,80.7,30.8,80.7z"/>
		</g>
		<g>
			<path class="st4" d="M25.5,79.7c0-0.6,0.5-1,1-1l0,0c0.6,0,1,0.4,1,1l0,0c0,0.5-0.4,1-1,1l0,0C25.9,80.7,25.5,80.3,25.5,79.7z
				 M21.1,79.7c0-0.6,0.5-1,1-1l0,0c0.6,0,1,0.4,1,1l0,0c0,0.5-0.4,1-1,1l0,0C21.6,80.7,21.1,80.3,21.1,79.7z"/>
		</g>
		<g>
			<path class="st4" d="M17.8,80.7c-0.3,0-0.5-0.1-0.7-0.3c-0.2-0.2-0.3-0.4-0.3-0.7c0-0.3,0.1-0.5,0.3-0.7c0.4-0.4,1-0.4,1.4,0
				c0.2,0.2,0.3,0.5,0.3,0.7c0,0.3-0.1,0.5-0.3,0.7C18.3,80.6,18,80.7,17.8,80.7z"/>
		</g>
		<g>
			<path class="st4" d="M16.8,75.6c0-0.5,0.4-1,1-1l0,0c0.5,0,1,0.5,1,1l0,0c0,0.5-0.5,1-1,1l0,0C17.2,76.6,16.8,76.1,16.8,75.6z"/>
		</g>
		<g>
			<path class="st4" d="M17.8,72.4c-0.3,0-0.5-0.1-0.7-0.3c-0.2-0.2-0.3-0.4-0.3-0.7c0-0.3,0.1-0.5,0.3-0.7c0.4-0.4,1-0.4,1.4,0
				c0.2,0.2,0.3,0.4,0.3,0.7c0,0.3-0.1,0.5-0.3,0.7C18.3,72.3,18,72.4,17.8,72.4z"/>
		</g>
	</g>
	
		<linearGradient id="SVGID_3_" gradientUnits="userSpaceOnUse" x1="3373.447" y1="49.9913" x2="3387.1274" y2="49.9913" gradientTransform="matrix(-1 0 0 1 3459.5129 0)">
		<stop  offset="0" style="stop-color:#0069FF;stop-opacity:0"/>
		<stop  offset="1" style="stop-color:#0069FF;stop-opacity:0.3"/>
	</linearGradient>
	<polygon class="st5" points="86,65.9 72.5,65.9 72.5,34.1 78.4,34.1 	"/>
	<g>
		<g>
			<linearGradient id="SVGID_4_" gradientUnits="userSpaceOnUse" x1="78.4007" y1="55.254" x2="78.4007" y2="39.496">
				<stop  offset="0" style="stop-color:#0069FF"/>
				<stop  offset="1" style="stop-color:#0069FF;stop-opacity:0"/>
			</linearGradient>
			<path class="st6" d="M70.6,51.2c0,0-0.6,4.7,4.7,4.7c0,0,4.3,0.2,6.6-3.3c1.6,0.5,3.8-0.1,4.3-1.2c0,0-0.9-0.8-3-0.9
				c0,0,0-2.1-1.3-3.2c0,0-0.9,1.1-0.8,3.7c-0.2,0.1-0.4,0.1-0.7,0.2H70.6z"/>
		</g>
		<linearGradient id="SVGID_5_" gradientUnits="userSpaceOnUse" x1="72.4715" y1="55.254" x2="72.4715" y2="39.496">
			<stop  offset="0" style="stop-color:#0069FF"/>
			<stop  offset="1" style="stop-color:#0069FF;stop-opacity:0"/>
		</linearGradient>
		<rect x="71.4" y="48" class="st7" width="2.1" height="2.1"/>
		<linearGradient id="SVGID_6_" gradientUnits="userSpaceOnUse" x1="75.7403" y1="55.254" x2="75.7403" y2="39.496">
			<stop  offset="0" style="stop-color:#0069FF"/>
			<stop  offset="1" style="stop-color:#0069FF;stop-opacity:0"/>
		</linearGradient>
		<rect x="74.7" y="48" class="st8" width="2.1" height="2.1"/>
		<linearGradient id="SVGID_7_" gradientUnits="userSpaceOnUse" x1="75.7403" y1="55.254" x2="75.7403" y2="39.496">
			<stop  offset="0" style="stop-color:#0069FF"/>
			<stop  offset="1" style="stop-color:#0069FF;stop-opacity:0"/>
		</linearGradient>
		<polyline class="st9" points="76.8,44.6 76.8,46.6 74.7,46.6 74.7,44.6 		"/>
		<linearGradient id="SVGID_8_" gradientUnits="userSpaceOnUse" x1="78.9702" y1="55.254" x2="78.9702" y2="39.496">
			<stop  offset="0" style="stop-color:#0069FF"/>
			<stop  offset="1" style="stop-color:#0069FF;stop-opacity:0"/>
		</linearGradient>
		<rect x="77.9" y="48" class="st10" width="2.1" height="2.1"/>
	</g>
	<g>
		<g>
			<linearGradient id="path1948_1_" gradientUnits="userSpaceOnUse" x1="20.5392" y1="57.7388" x2="20.5392" y2="32.8524">
				<stop  offset="0" style="stop-color:#0069FF"/>
				<stop  offset="1" style="stop-color:#0069FF;stop-opacity:0"/>
			</linearGradient>
			<path id="path1948" class="st11" d="M22.3,43c-0.6,0-1.2,0.1-1.7,0.1c-1.5,0.3-1.7,0.8-1.7,1.8v1h3.5v1.2h-3.5h-1.3
				c-1,0-1.9,0.6-2.2,1.8c-0.3,1.3-0.3,2.2,0,3.6c0.2,1,0.8,1.8,1.9,1.8h1.2v-1.6c0-1.2,1-2.2,2.2-2.2h3.5c1,0,1.7-0.8,1.7-1.8V45
				c0-0.9-0.8-1.7-1.7-1.8C23.6,43,22.9,43,22.3,43z"/>
			<linearGradient id="path1950_1_" gradientUnits="userSpaceOnUse" x1="25.2036" y1="57.9307" x2="25.2036" y2="33.8982">
				<stop  offset="0" style="stop-color:#0069FF"/>
				<stop  offset="1" style="stop-color:#0069FF;stop-opacity:0"/>
			</linearGradient>
			<path id="path1950" class="st12" d="M27.3,47.9v1.6c0,1.2-1,2.2-2.2,2.2h-3.5c-1,0-1.7,0.8-1.7,1.8v3.3c0,0.9,0.8,1.5,1.7,1.8
				c1.1,0.3,2.2,0.4,3.5,0c0.9-0.3,1.7-0.8,1.7-1.8v-0.6h-4.5V55h4.5h1.7c1,0,1.4-0.7,1.7-1.8c0.4-1.1,0.3-2.2,0-3.6
				c-0.3-1-0.7-1.8-1.7-1.8H27.3z"/>
		</g>
		<ellipse class="st0" cx="20.6" cy="44.7" rx="0.5" ry="0.5"/>
		<ellipse class="st0" cx="24.9" cy="56.7" rx="0.7" ry="0.7"/>
	</g>
	<linearGradient id="SVGID_9_" gradientUnits="userSpaceOnUse" x1="49.8303" y1="28.034" x2="49.8303" y2="71.5009">
		<stop  offset="0" style="stop-color:#0069FF"/>
		<stop  offset="1" style="stop-color:#0069FF"/>
	</linearGradient>
	<rect x="25" y="29" class="st13" width="49.6" height="41.5"/>
	<linearGradient id="SVGID_10_" gradientUnits="userSpaceOnUse" x1="49.7638" y1="57.6417" x2="49.7638" y2="30.3053">
		<stop  offset="0" style="stop-color:#0069FF"/>
		<stop  offset="1" style="stop-color:#0069FF;stop-opacity:0"/>
	</linearGradient>
	<path class="st14" d="M58.1,41.4H41.4l-2.9,5.3l11.3,13l11.3-13L58.1,41.4z M57.4,42.8l1.7,3.1H56L57.4,42.8z M55.9,42.7l-1.3,2.9
		l-3.1-2.9H55.9z M53,45.9h-3.2h-3.2l3.2-2.9L53,45.9z M48,42.7l-3.1,2.9l-1.3-2.9H48z M42.2,42.8l1.4,3.1h-3.1L42.2,42.8z
		 M40.8,47.3h3.3l3.4,7.8L40.8,47.3z M45.6,47.3h4.1h4.1l-4.1,9.5L45.6,47.3z M52,55.1l3.4-7.8h3.3L52,55.1z"/>
	
		<linearGradient id="SVGID_11_" gradientUnits="userSpaceOnUse" x1="-406.3563" y1="8006.9575" x2="-394.402" y2="8006.9575" gradientTransform="matrix(1 0 0 -1 419.6435 8056.8838)">
		<stop  offset="0" style="stop-color:#0069FF;stop-opacity:0"/>
		<stop  offset="1" style="stop-color:#0069FF;stop-opacity:0.3"/>
	</linearGradient>
	<polygon class="st15" points="21,33.9 25.1,33.9 25.1,65.9 13.3,65.9 	"/>
</g>
</svg>
