<?xml version="1.0" encoding="utf-8"?>
<!-- Generator: Adobe Illustrator 19.2.0, SVG Export Plug-In . SVG Version: 6.00 Build 0)  -->
<svg version="1.1" id="Layer_1" xmlns="http://www.w3.org/2000/svg" xmlns:xlink="http://www.w3.org/1999/xlink" x="0px" y="0px"
	 viewBox="0 0 100 100" style="enable-background:new 0 0 100 100;" xml:space="preserve">
<style type="text/css">
	.st0{fill:#FFFFFF;}
	.st1{fill:#FFFFFF;stroke:url(#SVGID_1_);stroke-width:2;stroke-linecap:round;stroke-miterlimit:10;}
	.st2{fill:url(#SVGID_2_);}
	.st3{clip-path:url(#SVGID_4_);}
	.st4{fill:url(#SVGID_5_);}
	.st5{fill:url(#SVGID_6_);}
</style>
<rect class="st0" width="100" height="100"/>
<g>
	
		<linearGradient id="SVGID_1_" gradientUnits="userSpaceOnUse" x1="2195.1208" y1="654.1105" x2="2249.321" y2="654.1105" gradientTransform="matrix(4.489659e-11 1 1 -4.489659e-11 -604.1105 -2172.2209)">
		<stop  offset="0" style="stop-color:#0069FF"/>
		<stop  offset="1" style="stop-color:#0069FF"/>
	</linearGradient>
	<circle class="st1" cx="50" cy="50" r="26.1"/>
	<g>
		<g>
			
				<linearGradient id="SVGID_2_" gradientUnits="userSpaceOnUse" x1="49.9992" y1="85" x2="49.9992" y2="19" gradientTransform="matrix(1 0 0 -1 0 102)">
				<stop  offset="0" style="stop-color:#0069FF"/>
				<stop  offset="1" style="stop-color:#0069FF"/>
			</linearGradient>
			<path class="st2" d="M50.1,83c-0.6,0-1-0.4-1-1l0,0c0-0.5,0.5-1,1-1l0,0c0.6,0,1,0.4,1,1l0,0C51.1,82.5,50.7,83,50.1,83L50.1,83
				L50.1,83z M46,82.8L46,82.8L46,82.8c-0.6-0.1-0.9-0.6-0.9-1.1l0,0c0.1-0.5,0.6-0.9,1.1-0.9l0,0c0.6,0.1,0.9,0.6,0.9,1.1l0,0
				c-0.1,0.5-0.5,0.9-1,0.9l0,0C46.1,82.8,46,82.8,46,82.8z M53.1,81.9c-0.1-0.6,0.3-1.1,0.9-1.1l0,0c0.6-0.1,1.1,0.3,1.1,0.9l0,0
				c0.1,0.6-0.3,1.1-0.9,1.1l0,0c-0.1,0-0.1,0-0.1,0l0,0C53.6,82.7,53.2,82.4,53.1,81.9z M41.9,82c-0.5-0.1-0.9-0.7-0.7-1.2l0,0
				c0.1-0.5,0.7-0.9,1.2-0.7l0,0c0.5,0.1,0.9,0.7,0.7,1.2l0,0c-0.1,0.5-0.5,0.8-1,0.8l0,0C42.1,82,42,82,41.9,82z M57.1,81.2
				c-0.1-0.5,0.2-1.1,0.7-1.2l0,0c0.5-0.1,1.1,0.2,1.2,0.7l0,0c0.1,0.5-0.2,1.1-0.7,1.2l0,0c-0.1,0-0.2,0-0.2,0l0,0
				C57.6,82,57.2,81.7,57.1,81.2z M38,80.7L38,80.7L38,80.7c-0.5-0.2-0.8-0.8-0.6-1.3l0,0c0.2-0.5,0.8-0.8,1.3-0.6l0,0
				c0.5,0.2,0.8,0.8,0.6,1.3l0,0c-0.2,0.4-0.5,0.6-0.9,0.6l0,0C38.2,80.8,38.1,80.8,38,80.7z M60.9,80.1c-0.2-0.5,0-1.1,0.6-1.3l0,0
				c0.5-0.2,1.1,0,1.3,0.6l0,0c0.2,0.5,0,1.1-0.5,1.3l0,0c0,0,0,0,0,0l0,0c-0.1,0.1-0.2,0.1-0.4,0.1l0,0
				C61.5,80.7,61.1,80.5,60.9,80.1z M34.2,79c-0.5-0.3-0.7-0.9-0.4-1.4l0,0c0.3-0.5,0.9-0.7,1.3-0.4l0,0c0.5,0.3,0.7,0.9,0.4,1.4
				l0,0c-0.2,0.3-0.5,0.5-0.9,0.5l0,0C34.5,79.1,34.4,79.1,34.2,79z M64.6,78.5c-0.3-0.5-0.1-1.1,0.4-1.4l0,0
				c0.5-0.3,1.1-0.1,1.3,0.4l0,0c0.3,0.5,0.1,1.1-0.4,1.4l0,0C65.8,79,65.6,79,65.5,79l0,0C65.1,79,64.8,78.8,64.6,78.5z M30.7,76.8
				c-0.4-0.3-0.5-1-0.2-1.4l0,0c0.3-0.4,0.9-0.5,1.4-0.2l0,0c0.5,0.3,0.6,1,0.2,1.4l0,0c-0.2,0.3-0.5,0.4-0.8,0.4l0,0
				C31.1,77,30.9,76.9,30.7,76.8z M68.1,76.4c-0.3-0.4-0.2-1.1,0.2-1.4l0,0c0.4-0.3,1.1-0.2,1.4,0.2l0,0c0.3,0.5,0.2,1.1-0.2,1.4
				l0,0l0,0l0,0c-0.2,0.1-0.4,0.2-0.6,0.2l0,0C68.6,76.8,68.3,76.7,68.1,76.4z M27.5,74.1c-0.4-0.4-0.4-1-0.1-1.4l0,0
				c0.4-0.4,1-0.4,1.4,0l0,0c0.4,0.4,0.4,1,0.1,1.4l0,0c-0.2,0.2-0.5,0.3-0.7,0.3l0,0C27.9,74.4,27.7,74.3,27.5,74.1z M71.2,74
				c-0.4-0.4-0.4-1,0-1.4l0,0c0.4-0.4,1-0.4,1.4,0l0,0c0.4,0.4,0.4,1,0,1.4l0,0c-0.2,0.2-0.4,0.3-0.7,0.3l0,0
				C71.7,74.3,71.4,74.2,71.2,74z M24.7,71.1c-0.4-0.4-0.3-1.1,0.1-1.4l0,0c0.4-0.4,1.1-0.3,1.4,0.1l0,0c0.4,0.4,0.3,1.1-0.1,1.4
				l0,0c-0.2,0.2-0.4,0.2-0.6,0.2l0,0C25.1,71.5,24.8,71.4,24.7,71.1z M74.1,71.1c-0.4-0.3-0.5-1-0.1-1.4l0,0c0.4-0.4,1-0.5,1.4-0.1
				l0,0c0.4,0.4,0.5,1,0.1,1.4l0,0c-0.2,0.2-0.5,0.4-0.8,0.4l0,0C74.5,71.3,74.2,71.3,74.1,71.1z M22.2,67.8
				c-0.3-0.5-0.2-1.1,0.3-1.4l0,0c0.5-0.3,1.1-0.2,1.4,0.3l0,0c0.3,0.5,0.2,1.1-0.3,1.4l0,0c-0.2,0.1-0.4,0.2-0.5,0.2l0,0
				C22.7,68.3,22.4,68.1,22.2,67.8z M76.5,67.9c-0.5-0.3-0.6-0.9-0.3-1.4l0,0c0.3-0.5,0.9-0.6,1.4-0.3l0,0c0.5,0.3,0.6,0.9,0.3,1.4
				l0,0c-0.2,0.3-0.5,0.5-0.8,0.5l0,0C76.9,68.1,76.7,68,76.5,67.9z M20.2,64.2c-0.2-0.5,0-1.1,0.5-1.3l0,0c0.5-0.2,1.1,0,1.3,0.5
				l0,0c0.2,0.5,0,1.1-0.5,1.3l0,0c-0.1,0.1-0.3,0.1-0.4,0.1l0,0C20.7,64.8,20.4,64.5,20.2,64.2z M78.6,64.5
				c-0.5-0.2-0.7-0.8-0.5-1.3l0,0c0.2-0.5,0.8-0.7,1.3-0.5l0,0c0.5,0.2,0.7,0.8,0.5,1.3l0,0l0,0l0,0c-0.2,0.4-0.5,0.6-0.9,0.6l0,0
				C78.8,64.6,78.7,64.5,78.6,64.5z M18.6,60.3c-0.2-0.5,0.1-1.1,0.6-1.3l0,0c0.5-0.2,1.1,0.1,1.3,0.6l0,0c0.2,0.5-0.1,1.1-0.6,1.3
				l0,0c-0.1,0-0.2,0.1-0.3,0.1l0,0C19.2,61,18.8,60.8,18.6,60.3z M80.1,60.8c-0.5-0.2-0.8-0.7-0.6-1.3v0c0.2-0.5,0.7-0.8,1.3-0.7
				l0,0c0.5,0.2,0.8,0.7,0.6,1.3l0,0c-0.1,0.4-0.5,0.7-1,0.7l0,0C80.4,60.8,80.2,60.8,80.1,60.8z M17.6,56.3
				c-0.1-0.5,0.2-1.1,0.8-1.2l0,0c0.5-0.1,1.1,0.2,1.2,0.8l0,0c0.1,0.5-0.2,1.1-0.8,1.2l0,0c-0.1,0-0.1,0-0.2,0l0,0
				C18.1,57.1,17.7,56.8,17.6,56.3z M81.3,56.9c-0.5-0.1-0.9-0.6-0.8-1.2l0,0c0.1-0.5,0.6-0.9,1.2-0.8l0,0c0.5,0.1,0.9,0.6,0.8,1.2
				l0,0l0,0l0,0c-0.1,0.5-0.5,0.8-1,0.8l0,0C81.4,56.9,81.3,56.9,81.3,56.9z M17.1,52.2c0-0.6,0.4-1,0.9-1.1l0,0
				c0.6,0,1,0.4,1.1,0.9l0,0c0,0.5-0.4,1-0.9,1.1l0,0c0,0,0,0-0.1,0l0,0C17.5,53.2,17.1,52.8,17.1,52.2z M81.9,53
				c-0.5,0-1-0.5-0.9-1.1l0,0c0-0.5,0.5-1,1.1-0.9l0,0c0.5,0,1,0.5,0.9,1.1l0,0C82.9,52.5,82.5,53,81.9,53L81.9,53
				C81.9,53,81.9,53,81.9,53z M18,49.1c-0.6,0-1-0.5-0.9-1l0,0c0-0.5,0.5-1,1-0.9l0,0c0.5,0,1,0.5,0.9,1l0,0
				C19,48.7,18.6,49.1,18,49.1L18,49.1C18,49.1,18,49.1,18,49.1z M80.9,48c0-0.5,0.4-1,0.9-1.1l0,0c0.5,0,1,0.4,1.1,0.9l0,0l0,0l0,0
				c0,0.5-0.4,1-0.9,1.1l0,0c0,0,0,0-0.1,0l0,0C81.4,48.9,81,48.5,80.9,48z M18.3,45.1c-0.5-0.1-0.9-0.6-0.8-1.2l0,0
				c0.1-0.5,0.6-0.9,1.2-0.8l0,0c0.5,0.1,0.9,0.6,0.8,1.2l0,0c-0.1,0.5-0.5,0.8-1,0.8l0,0C18.5,45.2,18.4,45.1,18.3,45.1z
				 M80.5,44.1L80.5,44.1c-0.1-0.5,0.2-1.1,0.8-1.2l0,0c0.5-0.1,1.1,0.2,1.2,0.8l0,0c0.1,0.5-0.2,1.1-0.8,1.2l0,0
				c-0.1,0-0.1,0-0.2,0l0,0C81,45,80.5,44.6,80.5,44.1z M19.2,41.2c-0.5-0.2-0.8-0.7-0.6-1.3l0,0c0.2-0.5,0.7-0.8,1.2-0.6l0,0
				c0.5,0.2,0.8,0.7,0.6,1.3l0,0c-0.1,0.4-0.5,0.7-1,0.7l0,0C19.4,41.3,19.3,41.2,19.2,41.2z M79.5,40.4c-0.2-0.5,0.1-1.1,0.6-1.3
				l0,0c0.5-0.2,1.1,0.1,1.3,0.6l0,0c0.2,0.5-0.1,1.1-0.6,1.3l0,0c-0.1,0-0.2,0-0.3,0l0,0C80,41.1,79.6,40.8,79.5,40.4z M20.5,37.4
				c-0.5-0.2-0.7-0.8-0.5-1.3l0,0c0.2-0.5,0.8-0.7,1.3-0.5l0,0c0.5,0.2,0.7,0.8,0.5,1.3v0c-0.2,0.4-0.5,0.6-0.9,0.6l0,0
				C20.8,37.5,20.7,37.5,20.5,37.4z M78,36.8c-0.2-0.5,0-1.1,0.5-1.3l0,0c0.5-0.2,1.1,0,1.3,0.5l0,0l0,0l0,0c0.2,0.5,0,1.1-0.5,1.3
				l0,0c-0.1,0.1-0.3,0.1-0.4,0.1l0,0C78.6,37.3,78.2,37.1,78,36.8z M22.4,33.8c-0.5-0.3-0.6-0.9-0.3-1.4l0,0
				c0.3-0.5,0.9-0.6,1.4-0.3l0,0c0.5,0.3,0.6,0.9,0.3,1.4l0,0c-0.2,0.3-0.5,0.5-0.8,0.5l0,0C22.7,34,22.5,33.9,22.4,33.8z
				 M76.2,33.4c-0.3-0.5-0.2-1.1,0.3-1.4l0,0c0.5-0.3,1.1-0.2,1.4,0.3l0,0c0.3,0.5,0.2,1.1-0.3,1.4l0,0c-0.2,0.1-0.4,0.2-0.5,0.2
				l0,0C76.7,33.8,76.3,33.7,76.2,33.4z M24.6,30.5c-0.4-0.4-0.5-1-0.1-1.4l0,0c0.4-0.4,1-0.5,1.4-0.1l0,0c0.4,0.4,0.5,1,0.1,1.4
				l0,0c-0.2,0.2-0.5,0.4-0.8,0.4l0,0C25,30.7,24.8,30.7,24.6,30.5z M73.9,30.2c-0.4-0.4-0.3-1,0.1-1.4l0,0c0.4-0.4,1.1-0.3,1.4,0.1
				l0,0c0.3,0.4,0.3,1.1-0.1,1.4l0,0c-0.2,0.2-0.4,0.2-0.6,0.2l0,0C74.3,30.6,74.1,30.5,73.9,30.2z M27.2,27.5c-0.4-0.4-0.4-1,0-1.4
				l0,0l0,0l0,0c0.4-0.4,1-0.4,1.4,0l0,0c0.4,0.4,0.4,1,0,1.4l0,0c-0.2,0.2-0.4,0.3-0.7,0.3l0,0C27.7,27.8,27.4,27.7,27.2,27.5z
				 M71.2,27.4L71.2,27.4c-0.4-0.4-0.4-1,0-1.4l0,0c0.4-0.4,1-0.4,1.4-0.1l0,0c0,0,0,0,0,0l0,0c0.4,0.4,0.4,1,0.1,1.4l0,0
				c-0.2,0.2-0.5,0.3-0.7,0.3l0,0C71.6,27.7,71.4,27.6,71.2,27.4z M30.2,24.8c-0.3-0.5-0.2-1.1,0.2-1.4l0,0c0.4-0.3,1.1-0.2,1.4,0.2
				l0,0c0.3,0.5,0.2,1.1-0.2,1.4l0,0c-0.2,0.1-0.4,0.2-0.6,0.2l0,0C30.7,25.2,30.4,25.1,30.2,24.8z M68.2,24.9
				c-0.5-0.3-0.5-0.9-0.2-1.4l0,0c0.3-0.4,0.9-0.5,1.4-0.2l0,0c0.5,0.3,0.5,0.9,0.2,1.4l0,0c-0.2,0.3-0.5,0.4-0.8,0.4l0,0
				C68.6,25.1,68.4,25,68.2,24.9z M33.5,22.5c-0.3-0.5-0.1-1.1,0.4-1.4l0,0c0.5-0.3,1.1-0.1,1.4,0.4l0,0c0.3,0.5,0.1,1.1-0.4,1.4
				l0,0C34.8,23,34.6,23,34.4,23l0,0C34.1,23,33.7,22.9,33.5,22.5z M64.9,22.8c-0.5-0.3-0.7-0.9-0.4-1.4l0,0
				c0.3-0.5,0.9-0.7,1.4-0.4l0,0c0.5,0.3,0.7,0.9,0.4,1.4l0,0c-0.2,0.3-0.5,0.5-0.9,0.5l0,0C65.2,22.9,65.1,22.9,64.9,22.8z
				 M37.1,20.7c-0.2-0.5,0-1.1,0.5-1.3l0,0c0.5-0.2,1.1,0,1.3,0.6l0,0c0.2,0.5,0,1.1-0.6,1.3l0,0c-0.1,0.1-0.2,0.1-0.4,0.1l0,0
				C37.6,21.3,37.3,21.1,37.1,20.7z M61.4,21.2c-0.5-0.2-0.8-0.8-0.6-1.3l0,0c0.2-0.5,0.8-0.8,1.3-0.6l0,0c0.5,0.2,0.8,0.8,0.6,1.3
				l0,0c-0.2,0.4-0.5,0.6-0.9,0.6l0,0C61.6,21.2,61.5,21.2,61.4,21.2z M40.9,19.3c-0.1-0.5,0.2-1.1,0.7-1.2l0,0
				c0.5-0.1,1.1,0.2,1.2,0.7l0,0c0.1,0.5-0.2,1.1-0.7,1.2l0,0c-0.1,0-0.2,0-0.2,0l0,0C41.4,20,41,19.8,40.9,19.3z M57.7,20
				c-0.5-0.1-0.9-0.7-0.7-1.2l0,0c0.1-0.5,0.7-0.9,1.2-0.7l0,0c0.5,0.1,0.9,0.7,0.7,1.2l0,0c-0.1,0.5-0.5,0.8-1,0.8l0,0
				C57.9,20,57.8,20,57.7,20z M44.8,18.4c-0.1-0.5,0.3-1.1,0.9-1.1l0,0c0.5-0.1,1.1,0.3,1.1,0.9l0,0c0.1,0.5-0.3,1-0.9,1.1l0,0
				c-0.1,0-0.1,0-0.1,0l0,0C45.3,19.3,44.9,18.9,44.8,18.4z M53.9,19.2L53.9,19.2c-0.5-0.1-0.9-0.6-0.9-1.1l0,0
				c0.1-0.5,0.6-0.9,1.1-0.9l0,0c0.5,0.1,0.9,0.6,0.9,1.1l0,0c-0.1,0.5-0.5,0.9-1,0.9l0,0C54,19.2,53.9,19.2,53.9,19.2z M48.8,18
				c0-0.6,0.4-1,1-1l0,0c0,0,0.1,0,0.1,0l0,0c0,0,0.1,0,0.1,0l0,0c0.5,0,1,0.4,1,1l0,0c0,0.5-0.5,1-1,1l0,0c0,0-0.1,0-0.1,0l0,0
				c0,0-0.1,0-0.1,0l0,0C49.2,19,48.8,18.6,48.8,18z"/>
		</g>
	</g>
	<g>
		<g>
			<defs>
				<circle id="SVGID_3_" cx="50" cy="50" r="20.2"/>
			</defs>
			<clipPath id="SVGID_4_">
				<use xlink:href="#SVGID_3_"  style="overflow:visible;"/>
			</clipPath>
			<g class="st3">
				
					<linearGradient id="SVGID_5_" gradientUnits="userSpaceOnUse" x1="28.4994" y1="37.0006" x2="77.5012" y2="37.0006" gradientTransform="matrix(1 0 0 -1 0 102)">
					<stop  offset="0" style="stop-color:#0069FF"/>
					<stop  offset="1" style="stop-color:#0069FF;stop-opacity:0"/>
				</linearGradient>
				<path class="st4" d="M49.9,54.2c-9.1,0-21.5,5.8-21.4,21.6l43-0.2C71.4,59.9,59,54.1,49.9,54.2z"/>
				
					<linearGradient id="SVGID_6_" gradientUnits="userSpaceOnUse" x1="40.4" y1="57.7" x2="66.7567" y2="57.7" gradientTransform="matrix(1 0 0 -1 0 102)">
					<stop  offset="0" style="stop-color:#0069FF"/>
					<stop  offset="1" style="stop-color:#0069FF;stop-opacity:0"/>
				</linearGradient>
				<circle class="st5" cx="50.2" cy="44.3" r="9.8"/>
			</g>
		</g>
	</g>
</g>
</svg>
