<?xml version="1.0" encoding="utf-8"?>
<!-- Generator: Adobe Illustrator 19.2.0, SVG Export Plug-In . SVG Version: 6.00 Build 0)  -->
<svg version="1.1" id="Layer_1" xmlns="http://www.w3.org/2000/svg" xmlns:xlink="http://www.w3.org/1999/xlink" x="0px" y="0px"
	 viewBox="0 0 100 100" style="enable-background:new 0 0 100 100;" xml:space="preserve">
<style type="text/css">
	.st0{fill:#FFFFFF;}
	.st1{fill:#FFFFFF;stroke:url(#SVGID_1_);stroke-width:2;stroke-linecap:round;stroke-miterlimit:10;}
	.st2{fill:url(#SVGID_2_);}
	.st3{fill:url(#SVGID_3_);}
	.st4{fill:url(#SVGID_4_);}
	.st5{fill:url(#SVGID_5_);}
	.st6{fill:url(#SVGID_6_);}
	.st7{fill:url(#SVGID_7_);}
	.st8{fill:url(#SVGID_8_);}
	.st9{fill:#FFFFFF;stroke:url(#SVGID_9_);stroke-width:2;stroke-linecap:round;stroke-miterlimit:10;}
	.st10{fill:url(#SVGID_10_);}
	.st11{fill:url(#SVGID_11_);}
	.st12{fill:url(#SVGID_12_);}
	.st13{fill:url(#SVGID_13_);}
	.st14{fill:url(#SVGID_14_);}
	.st15{fill:url(#SVGID_15_);}
</style>
<rect class="st0" width="100" height="100"/>
<g>
	<g>
		<g>
			<linearGradient id="SVGID_1_" gradientUnits="userSpaceOnUse" x1="49.6328" y1="20.0589" x2="49.6328" y2="55.3614">
				<stop  offset="0" style="stop-color:#0069FF"/>
				<stop  offset="1" style="stop-color:#0069FF"/>
			</linearGradient>
			<path class="st1" d="M78.6,48.5c0-1.3,1-2.3,2.3-2.3h1.6l0-25.1l-65.7,0l0,25.1h1.7c1.3,0,2.3,1,2.3,2.3c0,1.3-1,2.3-2.3,2.3
				h-1.7l0,3.5l30.5,0v-1c0-1.3,1-2.3,2.3-2.3c1.3,0,2.3,1,2.3,2.3v1l30.5,0l0-3.5h-1.6C79.6,50.9,78.6,49.8,78.6,48.5z"/>
		</g>
		<linearGradient id="SVGID_2_" gradientUnits="userSpaceOnUse" x1="16.9588" y1="52.2836" x2="83.1215" y2="52.2836">
			<stop  offset="0" style="stop-color:#0069FF"/>
			<stop  offset="1" style="stop-color:#0069FF;stop-opacity:0.2"/>
		</linearGradient>
		<path class="st2" d="M17,50.1v4.3h29.7c0,0,0.7-3.5,2.9-3.5s2.8,3.5,2.8,3.5h30.8v-4.3H17z"/>
		<g>
			<linearGradient id="SVGID_3_" gradientUnits="userSpaceOnUse" x1="26.2447" y1="42.2296" x2="33.6574" y2="26.8112">
				<stop  offset="0" style="stop-color:#0069FF"/>
				<stop  offset="0.1506" style="stop-color:#2D84FF"/>
				<stop  offset="0.4641" style="stop-color:#86B8FF"/>
				<stop  offset="0.7198" style="stop-color:#C7DEFF"/>
				<stop  offset="0.9046" style="stop-color:#F0F6FF"/>
				<stop  offset="1" style="stop-color:#FFFFFF"/>
			</linearGradient>
			<rect x="24.6" y="29.6" class="st3" width="7.9" height="15.7"/>
		</g>
		<g>
			<linearGradient id="SVGID_4_" gradientUnits="userSpaceOnUse" x1="40.0898" y1="39.0985" x2="43.1897" y2="28.5589">
				<stop  offset="0" style="stop-color:#0069FF"/>
				<stop  offset="0.1506" style="stop-color:#2D84FF"/>
				<stop  offset="0.4641" style="stop-color:#86B8FF"/>
				<stop  offset="0.7198" style="stop-color:#C7DEFF"/>
				<stop  offset="0.9046" style="stop-color:#F0F6FF"/>
				<stop  offset="1" style="stop-color:#FFFFFF"/>
			</linearGradient>
			<rect x="36.6" y="29.6" class="st4" width="7.9" height="15.7"/>
		</g>
		<g>
			<linearGradient id="SVGID_5_" gradientUnits="userSpaceOnUse" x1="56.015" y1="45.0342" x2="64.9013" y2="26.6416">
				<stop  offset="0" style="stop-color:#0069FF"/>
				<stop  offset="0.1506" style="stop-color:#2D84FF"/>
				<stop  offset="0.4641" style="stop-color:#86B8FF"/>
				<stop  offset="0.7198" style="stop-color:#C7DEFF"/>
				<stop  offset="0.9046" style="stop-color:#F0F6FF"/>
				<stop  offset="1" style="stop-color:#FFFFFF"/>
			</linearGradient>
			<rect x="55.7" y="29.6" class="st5" width="7.9" height="15.7"/>
		</g>
		<g>
			<linearGradient id="SVGID_6_" gradientUnits="userSpaceOnUse" x1="69.9137" y1="41.954" x2="75.8871" y2="27.0047">
				<stop  offset="0" style="stop-color:#0069FF"/>
				<stop  offset="0.1506" style="stop-color:#2D84FF"/>
				<stop  offset="0.4641" style="stop-color:#86B8FF"/>
				<stop  offset="0.7198" style="stop-color:#C7DEFF"/>
				<stop  offset="0.9046" style="stop-color:#F0F6FF"/>
				<stop  offset="1" style="stop-color:#FFFFFF"/>
			</linearGradient>
			<rect x="67.8" y="29.6" class="st6" width="7.9" height="15.7"/>
		</g>
		<g>
			<linearGradient id="SVGID_7_" gradientUnits="userSpaceOnUse" x1="22.1131" y1="25.34" x2="76.1131" y2="25.34">
				<stop  offset="0" style="stop-color:#0069FF"/>
				<stop  offset="1" style="stop-color:#0069FF"/>
			</linearGradient>
			<path class="st7" d="M74.1,25.3c0-0.5,0.4-1,1-1l0,0c0.5,0,1,0.5,1,1l0,0c0,0.6-0.5,1-1,1l0,0C74.6,26.3,74.1,25.9,74.1,25.3z
				 M70.1,25.3c0-0.5,0.4-1,1-1l0,0c0.5,0,1,0.5,1,1l0,0c0,0.6-0.5,1-1,1l0,0C70.6,26.3,70.1,25.9,70.1,25.3z M66.1,25.3
				c0-0.5,0.4-1,1-1l0,0c0.5,0,1,0.5,1,1l0,0c0,0.6-0.5,1-1,1l0,0C66.6,26.3,66.1,25.9,66.1,25.3z M62.1,25.3c0-0.5,0.4-1,1-1l0,0
				c0.5,0,1,0.5,1,1l0,0c0,0.6-0.5,1-1,1l0,0C62.6,26.3,62.1,25.9,62.1,25.3z M58.1,25.3c0-0.5,0.4-1,1-1l0,0c0.5,0,1,0.5,1,1l0,0
				c0,0.6-0.5,1-1,1l0,0C58.6,26.3,58.1,25.9,58.1,25.3z M54.1,25.3c0-0.5,0.4-1,1-1l0,0c0.5,0,1,0.5,1,1l0,0c0,0.6-0.5,1-1,1l0,0
				C54.6,26.3,54.1,25.9,54.1,25.3z M50.1,25.3c0-0.5,0.4-1,1-1l0,0c0.5,0,1,0.5,1,1l0,0c0,0.6-0.5,1-1,1l0,0
				C50.6,26.3,50.1,25.9,50.1,25.3z M46.1,25.3c0-0.5,0.4-1,1-1l0,0c0.5,0,1,0.5,1,1l0,0c0,0.6-0.5,1-1,1l0,0
				C46.6,26.3,46.1,25.9,46.1,25.3z M42.1,25.3c0-0.5,0.4-1,1-1l0,0c0.5,0,1,0.5,1,1l0,0c0,0.6-0.5,1-1,1l0,0
				C42.6,26.3,42.1,25.9,42.1,25.3z M38.1,25.3c0-0.5,0.4-1,1-1l0,0c0.5,0,1,0.5,1,1l0,0c0,0.6-0.5,1-1,1l0,0
				C38.6,26.3,38.1,25.9,38.1,25.3z M34.1,25.3c0-0.5,0.4-1,1-1l0,0c0.5,0,1,0.5,1,1l0,0c0,0.6-0.5,1-1,1l0,0
				C34.6,26.3,34.1,25.9,34.1,25.3z M30.1,25.3c0-0.5,0.4-1,1-1l0,0c0.5,0,1,0.5,1,1l0,0c0,0.6-0.5,1-1,1l0,0
				C30.6,26.3,30.1,25.9,30.1,25.3z M26.1,25.3c0-0.5,0.4-1,1-1l0,0c0.5,0,1,0.5,1,1l0,0c0,0.6-0.5,1-1,1l0,0
				C26.6,26.3,26.1,25.9,26.1,25.3z M22.1,25.3c0-0.5,0.4-1,1-1l0,0c0.5,0,1,0.5,1,1l0,0c0,0.6-0.5,1-1,1l0,0
				C22.6,26.3,22.1,25.9,22.1,25.3z"/>
		</g>
	</g>
	<linearGradient id="SVGID_8_" gradientUnits="userSpaceOnUse" x1="42.0415" y1="70.6752" x2="51.9799" y2="24.5376">
		<stop  offset="0" style="stop-color:#0069FF"/>
		<stop  offset="1" style="stop-color:#0069FF;stop-opacity:0"/>
	</linearGradient>
	<rect x="16.1" y="32" class="st8" width="67.2" height="6.2"/>
	<g>
		<g>
			<linearGradient id="SVGID_9_" gradientUnits="userSpaceOnUse" x1="49.6181" y1="37.5637" x2="49.6181" y2="79.8504">
				<stop  offset="0" style="stop-color:#0069FF"/>
				<stop  offset="1" style="stop-color:#0069FF"/>
			</linearGradient>
			<path class="st9" d="M84.6,71.8c0-1.6,1.3-2.8,2.8-2.8h1.9l0-30.4l-79.5,0l0,30.4h2.1c1.6,0,2.8,1.3,2.8,2.8
				c0,1.6-1.3,2.8-2.8,2.8H9.9l0,4.2l36.9,0v-1.2c0-1.6,1.3-2.8,2.8-2.8c1.6,0,2.8,1.3,2.8,2.8v1.2l36.9,0l0-4.2h-1.9
				C85.9,74.6,84.6,73.3,84.6,71.8z"/>
		</g>
		<linearGradient id="SVGID_10_" gradientUnits="userSpaceOnUse" x1="10.0917" y1="76.337" x2="90.1303" y2="76.337">
			<stop  offset="0" style="stop-color:#0069FF"/>
			<stop  offset="1" style="stop-color:#0069FF;stop-opacity:0.2"/>
		</linearGradient>
		<path class="st10" d="M10.1,73.7v5.2h36c0,0,0.9-4.2,3.5-4.2s3.4,4.2,3.4,4.2h37.2v-5.2H10.1z"/>
		<g>
			<linearGradient id="SVGID_11_" gradientUnits="userSpaceOnUse" x1="19.7631" y1="67.4234" x2="28.7304" y2="48.7714">
				<stop  offset="0" style="stop-color:#0069FF"/>
				<stop  offset="0.1506" style="stop-color:#2D84FF"/>
				<stop  offset="0.4641" style="stop-color:#86B8FF"/>
				<stop  offset="0.7198" style="stop-color:#C7DEFF"/>
				<stop  offset="0.9046" style="stop-color:#F0F6FF"/>
				<stop  offset="1" style="stop-color:#FFFFFF"/>
			</linearGradient>
			<rect x="19.3" y="48.9" class="st11" width="9.5" height="19"/>
		</g>
		<g>
			<linearGradient id="SVGID_12_" gradientUnits="userSpaceOnUse" x1="34.7104" y1="67.331" x2="42.9603" y2="48.6789">
				<stop  offset="0" style="stop-color:#0069FF"/>
				<stop  offset="0.1506" style="stop-color:#2D84FF"/>
				<stop  offset="0.4641" style="stop-color:#86B8FF"/>
				<stop  offset="0.7198" style="stop-color:#C7DEFF"/>
				<stop  offset="0.9046" style="stop-color:#F0F6FF"/>
				<stop  offset="1" style="stop-color:#FFFFFF"/>
			</linearGradient>
			<rect x="33.9" y="48.9" class="st12" width="9.5" height="19"/>
		</g>
		<g>
			<linearGradient id="SVGID_13_" gradientUnits="userSpaceOnUse" x1="57.4297" y1="67.4234" x2="66.397" y2="48.7714">
				<stop  offset="0" style="stop-color:#0069FF"/>
				<stop  offset="0.1506" style="stop-color:#2D84FF"/>
				<stop  offset="0.4641" style="stop-color:#86B8FF"/>
				<stop  offset="0.7198" style="stop-color:#C7DEFF"/>
				<stop  offset="0.9046" style="stop-color:#F0F6FF"/>
				<stop  offset="1" style="stop-color:#FFFFFF"/>
			</linearGradient>
			<rect x="57" y="48.9" class="st13" width="9.5" height="19"/>
		</g>
		<g>
			<linearGradient id="SVGID_14_" gradientUnits="userSpaceOnUse" x1="72.377" y1="67.331" x2="80.627" y2="48.6789">
				<stop  offset="0" style="stop-color:#0069FF"/>
				<stop  offset="0.1506" style="stop-color:#2D84FF"/>
				<stop  offset="0.4641" style="stop-color:#86B8FF"/>
				<stop  offset="0.7198" style="stop-color:#C7DEFF"/>
				<stop  offset="0.9046" style="stop-color:#F0F6FF"/>
				<stop  offset="1" style="stop-color:#FFFFFF"/>
			</linearGradient>
			<rect x="71.6" y="48.9" class="st14" width="9.5" height="19"/>
		</g>
		<g>
			<linearGradient id="SVGID_15_" gradientUnits="userSpaceOnUse" x1="16.533" y1="43.7501" x2="82.533" y2="43.7501">
				<stop  offset="0" style="stop-color:#0069FF"/>
				<stop  offset="1" style="stop-color:#0069FF"/>
			</linearGradient>
			<path class="st15" d="M80.5,43.8c0-0.6,0.4-1,1-1l0,0c0.6,0,1,0.4,1,1l0,0c0,0.5-0.4,1-1,1l0,0C81,44.8,80.5,44.3,80.5,43.8z
				 M76.5,43.8c0-0.6,0.4-1,1-1l0,0c0.6,0,1,0.4,1,1l0,0c0,0.5-0.4,1-1,1l0,0C77,44.8,76.5,44.3,76.5,43.8z M72.5,43.8
				c0-0.6,0.4-1,1-1l0,0c0.6,0,1,0.4,1,1l0,0c0,0.5-0.4,1-1,1l0,0C73,44.8,72.5,44.3,72.5,43.8z M68.5,43.8c0-0.6,0.4-1,1-1l0,0
				c0.6,0,1,0.4,1,1l0,0c0,0.5-0.4,1-1,1l0,0C69,44.8,68.5,44.3,68.5,43.8z M64.5,43.8c0-0.6,0.4-1,1-1l0,0c0.6,0,1,0.4,1,1l0,0
				c0,0.5-0.4,1-1,1l0,0C65,44.8,64.5,44.3,64.5,43.8z M60.5,43.8c0-0.6,0.4-1,1-1l0,0c0.6,0,1,0.4,1,1l0,0c0,0.5-0.4,1-1,1l0,0
				C61,44.8,60.5,44.3,60.5,43.8z M56.5,43.8c0-0.6,0.4-1,1-1l0,0c0.6,0,1,0.4,1,1l0,0c0,0.5-0.4,1-1,1l0,0
				C57,44.8,56.5,44.3,56.5,43.8z M52.5,43.8c0-0.6,0.4-1,1-1l0,0c0.6,0,1,0.4,1,1l0,0c0,0.5-0.4,1-1,1l0,0
				C53,44.8,52.5,44.3,52.5,43.8z M48.5,43.8c0-0.6,0.4-1,1-1l0,0c0.6,0,1,0.4,1,1l0,0c0,0.5-0.4,1-1,1l0,0
				C49,44.8,48.5,44.3,48.5,43.8z M44.5,43.8c0-0.6,0.4-1,1-1l0,0c0.6,0,1,0.4,1,1l0,0c0,0.5-0.4,1-1,1l0,0
				C45,44.8,44.5,44.3,44.5,43.8z M40.5,43.8c0-0.6,0.4-1,1-1l0,0c0.6,0,1,0.4,1,1l0,0c0,0.5-0.4,1-1,1l0,0
				C41,44.8,40.5,44.3,40.5,43.8z M36.5,43.8c0-0.6,0.4-1,1-1l0,0c0.6,0,1,0.4,1,1l0,0c0,0.5-0.4,1-1,1l0,0
				C37,44.8,36.5,44.3,36.5,43.8z M32.5,43.8c0-0.6,0.4-1,1-1l0,0c0.6,0,1,0.4,1,1l0,0c0,0.5-0.4,1-1,1l0,0
				C33,44.8,32.5,44.3,32.5,43.8z M28.5,43.8c0-0.6,0.4-1,1-1l0,0c0.6,0,1,0.4,1,1l0,0c0,0.5-0.4,1-1,1l0,0
				C29,44.8,28.5,44.3,28.5,43.8z M24.5,43.8c0-0.6,0.4-1,1-1l0,0c0.6,0,1,0.4,1,1l0,0c0,0.5-0.4,1-1,1l0,0
				C25,44.8,24.5,44.3,24.5,43.8z M20.5,43.8c0-0.6,0.4-1,1-1l0,0c0.6,0,1,0.4,1,1l0,0c0,0.5-0.4,1-1,1l0,0
				C21,44.8,20.5,44.3,20.5,43.8z M16.5,43.8c0-0.6,0.4-1,1-1l0,0c0.6,0,1,0.4,1,1l0,0c0,0.5-0.4,1-1,1l0,0
				C17,44.8,16.5,44.3,16.5,43.8z"/>
		</g>
	</g>
</g>
</svg>
